<svg width="512" height="512" viewBox="0 0 512 512" fill="none" xmlns="http://www.w3.org/2000/svg">
  <rect width="512" height="512" rx="128" fill="url(#paint0_linear)"/>
  <path d="M160 120C160 108.954 168.954 100 180 100H360C371.046 100 380 108.954 380 120V392C380 403.046 371.046 412 360 412H180C168.954 412 160 403.046 160 392V120Z" fill="white"/>
  <path d="M160 360H380V392C380 403.046 371.046 412 360 412H180C168.954 412 160 403.046 160 392V360Z" fill="#E2E8F0"/>
  <path d="M240 240L285 285L360 210" stroke="#16A34A" stroke-width="32" stroke-linecap="round" stroke-linejoin="round"/>
  <rect x="190" y="140" width="140" height="12" rx="6" fill="#CBD5E1"/>
  <rect x="190" y="170" width="100" height="12" rx="6" fill="#CBD5E1"/>
  <defs>
    <linearGradient id="paint0_linear" x1="0" y1="0" x2="512" y2="512" gradientUnits="userSpaceOnUse">
      <stop stop-color="#22C55E"/>
      <stop offset="1" stop-color="#16A34A"/>
    </linearGradient>
  </defs>
</svg>
